<!DOCTYPE svg PUBLIC "-//W3C//DTD SVG 1.0//EN" "http://www.w3.org/TR/2001/REC-SVG-20010904/DTD/svg10.dtd"[]>
<svg xmlns:svg="http://www.w3.org/2000/svg" xmlns="http://www.w3.org/2000/svg" version="1.0" width="640pt" height="640pt" id="svg4468">
  <path d="M540 144 L540 112 L572 88 L572 72 L540 48 L540 16 L580 20 L620 16 L620 48 L588 72 L588 88 L620 112 L620 144 L580 140 L540 144" style="fill:none; stroke:black;" />
  <path d="M144 524 L117 517 L119 514 L117 511 L118 505 L120 499 L119 498 L118 495 L117 494 L115 488 L113 485 L112 482 L111 480 L111 478 L109 474 L108 473 L107 471 L107 469 L105 467 L105 466 L104 465 L104 464 L102 462 L102 460 L101 458 L101 455 L100 453 L100 452 L98 450 L98 448 L97 447 L96 447 L94 445 L93 443 L95 443 L95 437 L98 427 L120 364 L122 358 L133 362 L140 364 L149 367 L154 369 L159 370 L180 377 L185 378 L186 379 L184 386 L183 387 L182 387 L180 388 L175 393 L175 394 L176 395 L177 395 L179 396 L180 395 L181 395 L182 394 L182 392 L183 392 L182 396 L181 401 L178 412 L175 424 L172 440 L170 447 L168 455 L167 458 L164 472 L161 485 L160 492 L151 529 L151 526 L148 525 L144 524" style="fill:none; stroke:black;" />
  <path d="M38 497 L35 495 L30 488 L30 485 L29 484 L27 483 L26 481 L25 478 L25 476 L23 474 L22 472 L22 470 L20 467 L18 463 L17 460 L16 458 L16 454 L15 453 L15 452 L18 449 L19 449 L22 452 L27 458 L30 461 L30 462 L31 462 L32 463 L33 465 L34 466 L34 467 L35 467 L35 468 L37 472 L37 478 L38 479 L40 482 L43 486 L43 491 L44 492 L44 496 L45 497 L45 498 L44 499 L40 498 L38 497" style="fill:none; stroke:black;" />
  <path d="M106 513 L98 510 L96 509 L67 498 L55 493 L53 493 L50 492 L49 491 L47 491 L47 485 L46 485 L42 481 L42 479 L40 479 L39 476 L38 474 L38 470 L36 467 L33 464 L31 461 L31 456 L30 456 L28 454 L27 454 L25 452 L25 451 L24 450 L24 437 L26 436 L27 435 L27 433 L26 432 L26 427 L24 425 L22 422 L22 420 L23 419 L23 418 L25 416 L25 415 L23 412 L22 410 L22 396 L24 394 L26 393 L27 393 L31 391 L34 389 L34 385 L35 382 L38 379 L38 372 L35 369 L32 363 L31 360 L31 357 L33 347 L33 343 L32 342 L32 330 L31 330 L31 325 L30 322 L28 314 L28 311 L25 308 L22 307 L21 307 L20 309 L20 310 L19 311 L16 311 L15 312 L13 313 L11 313 L10 314 L9 314 L10 313 L10 304 L9 302 L8 301 L8 296 L10 296 L20 304 L36 314 L53 325 L62 330 L70 334 L71 335 L87 343 L92 346 L96 347 L104 351 L109 353 L115 355 L120 357 L121 358 L121 359 L120 359 L120 360 L118 367 L115 376 L112 384 L108 393 L96 429 L93 436 L93 442 L92 444 L92 446 L94 447 L96 449 L99 455 L100 458 L100 460 L102 464 L102 465 L103 466 L103 468 L104 468 L105 469 L106 471 L106 473 L107 475 L108 475 L110 480 L110 482 L114 490 L116 495 L118 498 L118 500 L117 503 L117 506 L116 511 L116 513 L117 515 L118 516 L118 517 L117 516 L106 513" style="fill:none; stroke:black;" />
  <path d="M3 419 L1 414 L0 409 L0 400 L1 396 L1 392 L2 392 L2 389 L4 389 L6 391 L9 392 L12 396 L12 397 L7 402 L2 408 L4 416 L5 418 L5 423 L4 422 L3 419" style="fill:none; stroke:black;" />
  <path d="M241 389 L240 392 L240 397 L239 398 L239 404 L238 407 L238 411 L237 417 L237 418 L239 420 L236 423 L235 425 L234 429 L234 442 L233 445 L233 456 L232 463 L232 472 L231 475 L231 487 L230 490 L230 502 L229 505 L229 517 L228 520 L228 522 L227 533 L227 540 L230 540 L235 541 L240 541 L241 542 L248 542 L250 543 L255 543 L259 544 L276 544 L277 542 L277 526 L278 524 L278 512 L279 498 L279 496 L280 494 L281 493 L284 489 L292 481 L296 476 L297 475 L298 473 L299 472 L300 472 L304 466 L307 463 L309 460 L311 458 L314 454 L318 450 L320 447 L324 443 L325 441 L327 440 L328 438 L325 436 L323 436 L319 435 L318 435 L318 434 L317 434 L317 433 L313 433 L311 434 L310 435 L303 435 L303 434 L304 433 L304 432 L302 425 L301 420 L301 416 L300 413 L299 412 L294 410 L290 410 L289 409 L289 408 L288 407 L288 403 L289 398 L289 394 L281 394 L279 393 L273 393 L271 392 L264 392 L262 391 L255 391 L253 390 L247 390 L244 389 L243 389 L255 477 L257 477 L258 478 L259 480 L260 481 L260 483 L261 483 L264 490 L263 490 L263 491 L264 494 L265 495 L265 502 L268 511 L269 512 L269 518 L270 522 L270 523 L267 523 L266 524 L265 526 L264 526 L262 524 L263 520 L264 518 L264 517 L265 516 L265 514 L266 512 L266 511 L265 511 L265 510 L264 510 L264 511 L263 512 L262 512 L262 509 L264 505 L262 502 L259 503 L257 504 L256 503 L256 502 L255 500 L254 499 L254 498 L253 496 L251 494 L251 490 L249 489 L246 487 L245 488 L244 491 L244 502 L250 508 L251 511 L252 513 L252 519 L253 521 L255 524 L255 527 L253 527 L252 528 L250 526 L248 514 L247 511 L247 510 L243 508 L240 506 L239 504 L239 501 L240 500 L241 500 L241 493 L239 491 L237 490 L236 489 L236 486 L239 486 L240 484 L237 481 L237 480 L240 479 L242 479 L245 482 L245 484 L247 486 L248 484 L249 481 L251 478 L253 478 L253 477 L254 477 L241 389" style="fill:none; stroke:black;" />
  <path d="M528 569 L527 569 L525 567 L525 565 L524 565 L523 564 L521 563 L518 555 L518 548 L516 546 L515 544 L512 543 L509 543 L509 540 L508 538 L508 536 L515 536 L517 535 L520 533 L520 532 L523 531 L525 530 L528 530 L529 529 L530 530 L532 531 L535 528 L541 526 L541 529 L540 529 L539 531 L539 536 L542 539 L542 541 L543 543 L544 544 L547 546 L551 546 L553 547 L552 548 L551 550 L550 551 L548 554 L547 555 L545 559 L539 565 L536 565 L536 566 L535 567 L534 569 L531 570 L528 569" style="fill:none; stroke:black;" />
  <path d="M583 513 L582 511 L582 509 L584 507 L585 505 L585 502 L584 501 L583 501 L583 500 L585 496 L585 492 L584 484 L584 476 L585 467 L585 465 L586 462 L586 458 L587 456 L591 453 L593 452 L593 451 L594 452 L596 453 L596 465 L595 468 L595 472 L594 475 L596 473 L596 472 L597 471 L597 470 L599 470 L601 471 L602 472 L602 476 L608 476 L608 475 L609 475 L610 474 L611 474 L614 473 L615 473 L618 471 L620 471 L622 472 L623 473 L623 477 L622 478 L624 480 L627 480 L630 479 L630 483 L629 484 L628 486 L627 486 L627 487 L628 488 L628 492 L629 492 L629 490 L632 487 L633 487 L633 488 L634 489 L634 492 L635 492 L637 490 L638 490 L639 489 L639 490 L640 491 L640 501 L638 505 L634 505 L634 504 L633 502 L632 503 L630 506 L629 504 L629 499 L628 495 L628 493 L626 493 L626 498 L624 499 L623 501 L622 501 L622 505 L621 510 L620 511 L613 511 L612 510 L615 508 L617 506 L617 502 L616 503 L614 504 L611 504 L610 503 L610 504 L605 507 L601 509 L596 509 L593 510 L591 512 L585 514 L584 513 L583 513" style="fill:none; stroke:black;" />
  <path d="M520 475 L517 475 L517 474 L516 473 L515 473 L513 474 L509 474 L508 472 L508 467 L506 465 L504 466 L504 467 L501 467 L499 465 L500 465 L500 459 L499 458 L497 458 L494 456 L490 450 L491 448 L491 447 L493 447 L494 445 L494 442 L495 441 L496 441 L496 440 L497 439 L497 438 L500 438 L502 439 L503 439 L504 441 L506 440 L507 438 L508 437 L512 437 L514 438 L514 437 L515 437 L515 441 L512 443 L509 446 L509 447 L507 448 L507 449 L509 451 L512 451 L513 449 L514 448 L517 447 L519 447 L521 448 L523 447 L525 443 L525 440 L524 439 L523 439 L523 440 L522 441 L516 441 L516 440 L520 432 L520 430 L518 426 L517 425 L516 425 L516 422 L514 418 L510 414 L510 411 L509 409 L509 400 L508 396 L508 394 L505 394 L504 393 L503 393 L501 391 L501 390 L502 388 L502 387 L503 387 L502 386 L502 381 L503 380 L502 379 L498 380 L496 380 L496 376 L495 373 L495 372 L493 372 L493 371 L492 371 L492 369 L490 362 L490 361 L496 366 L498 369 L499 371 L501 372 L502 372 L503 373 L503 374 L504 374 L505 376 L506 376 L508 378 L509 380 L509 381 L510 382 L511 382 L512 383 L512 384 L514 386 L517 386 L518 387 L519 389 L519 390 L520 392 L520 395 L523 396 L524 396 L525 397 L526 397 L527 398 L526 401 L525 403 L526 404 L526 405 L527 406 L527 408 L528 409 L532 410 L538 412 L539 412 L543 416 L548 417 L553 417 L554 418 L557 418 L559 417 L559 416 L560 416 L563 417 L565 417 L567 418 L568 419 L567 421 L565 422 L560 427 L558 430 L557 430 L556 431 L555 433 L551 437 L550 440 L551 441 L552 441 L557 436 L558 434 L558 432 L562 428 L565 424 L566 423 L569 423 L571 425 L571 427 L573 427 L575 426 L578 426 L581 429 L585 431 L586 431 L586 433 L585 435 L586 438 L590 442 L592 446 L592 447 L588 453 L587 455 L585 456 L583 454 L582 452 L580 450 L579 451 L578 451 L577 452 L575 452 L574 453 L573 453 L570 454 L566 456 L562 457 L559 458 L556 460 L552 461 L551 462 L546 464 L536 467 L534 468 L531 468 L527 466 L526 465 L526 466 L525 466 L525 475 L524 475 L524 476 L521 476 L520 475" style="fill:none; stroke:black;" />
  <path d="M545 586 L542 585 L541 584 L539 579 L539 575 L540 573 L543 568 L545 566 L546 564 L549 561 L551 561 L555 558 L555 557 L551 559 L546 562 L547 557 L552 551 L554 549 L554 548 L556 549 L561 549 L566 548 L568 547 L569 546 L576 546 L578 547 L580 551 L579 551 L576 554 L575 556 L573 558 L572 558 L571 560 L566 563 L564 565 L563 567 L561 569 L558 569 L558 570 L557 571 L557 572 L555 576 L554 579 L553 581 L547 587 L547 586 L545 586" style="fill:none; stroke:black;" />
  <path d="M578 547 L578 546 L577 545 L575 544 L573 542 L573 540 L574 540 L574 537 L575 535 L577 529 L579 526 L580 526 L581 528 L581 533 L582 534 L583 534 L585 535 L587 537 L587 541 L586 542 L585 544 L582 544 L582 545 L581 546 L580 548 L579 548 L578 547" style="fill:none; stroke:black;" />
  <path d="M98 188 L94 188 L91 189 L91 194 L90 195 L89 193 L88 192 L87 192 L80 206 L79 210 L78 212 L77 215 L76 215 L75 217 L75 218 L79 220 L86 225 L86 226 L81 236 L81 240 L83 241 L84 242 L84 250 L83 251 L81 251 L79 253 L79 256 L78 256 L78 260 L79 261 L79 265 L80 267 L81 268 L82 270 L82 273 L81 274 L82 275 L82 276 L83 278 L83 281 L81 285 L80 292 L80 299 L79 301 L79 303 L81 305 L82 307 L83 311 L84 314 L86 318 L87 319 L85 321 L85 326 L84 326 L84 327 L87 329 L91 331 L92 332 L94 333 L96 333 L98 332 L98 346 L103 349 L121 356 L142 364 L162 369 L168 371 L176 374 L188 377 L189 377 L190 378 L194 378 L206 381 L207 381 L210 382 L213 382 L219 384 L221 384 L224 385 L228 385 L236 387 L239 387 L239 384 L240 382 L240 373 L241 371 L241 364 L242 355 L242 352 L243 349 L243 341 L244 338 L244 330 L245 327 L245 322 L229 314 L221 309 L214 306 L210 303 L204 293 L192 291 L188 284 L185 280 L181 274 L178 271 L176 267 L171 260 L168 255 L164 250 L161 246 L160 245 L160 244 L161 239 L168 222 L164 218 L164 217 L163 216 L163 215 L161 215 L160 214 L158 213 L155 213 L153 214 L151 216 L150 216 L148 215 L151 212 L151 203 L150 203 L146 208 L143 210 L142 212 L141 212 L140 210 L139 209 L139 196 L138 195 L136 194 L135 194 L134 196 L133 196 L132 197 L130 197 L129 196 L128 196 L129 195 L129 192 L125 190 L121 190 L118 191 L108 191 L106 193 L102 193 L155 260 L156 260 L156 262 L155 264 L153 265 L151 267 L152 268 L159 271 L165 273 L164 274 L164 276 L163 277 L162 277 L160 279 L158 280 L155 279 L154 278 L150 276 L150 277 L139 286 L139 285 L141 283 L144 279 L136 283 L130 280 L160 327 L162 329 L163 331 L169 337 L171 341 L172 341 L174 342 L178 343 L181 342 L183 341 L185 339 L186 337 L188 337 L191 336 L194 336 L194 340 L192 342 L190 343 L188 343 L184 347 L176 351 L175 352 L171 352 L169 354 L168 354 L166 356 L164 356 L163 357 L162 356 L153 356 L144 347 L144 346 L150 346 L151 347 L98 188" style="fill:none; stroke:black;" />
  <path d="M212 227 L208 226 L203 224 L199 223 L196 222 L192 221 L186 219 L188 219 L191 218 L194 219 L200 219 L204 221 L211 223 L210 221 L208 220 L205 216 L203 215 L198 215 L191 213 L187 212 L185 211 L185 210 L184 208 L184 206 L183 204 L183 203 L185 203 L192 201 L194 200 L193 200 L192 199 L188 199 L186 197 L187 195 L187 194 L186 194 L185 193 L185 192 L184 190 L184 189 L186 186 L189 183 L189 179 L197 175 L204 173 L207 172 L211 172 L213 171 L215 175 L213 181 L212 182 L212 183 L213 183 L214 181 L217 180 L220 181 L223 184 L224 184 L225 185 L224 188 L223 190 L226 190 L227 189 L228 189 L228 188 L227 186 L227 184 L229 183 L230 182 L230 183 L219 228 L219 229 L218 229 L212 227" style="fill:none; stroke:black;" />
  <path d="M163 193 L162 193 L162 188 L161 184 L161 183 L159 179 L157 176 L156 174 L156 173 L157 171 L159 170 L161 167 L163 165 L164 162 L166 160 L166 159 L167 159 L171 153 L175 148 L175 141 L176 139 L177 139 L178 140 L182 140 L184 141 L185 142 L187 142 L188 143 L191 143 L191 146 L197 152 L205 152 L207 160 L210 169 L209 170 L202 172 L198 173 L195 174 L194 176 L192 176 L192 177 L190 178 L187 181 L185 182 L182 184 L181 185 L180 188 L178 192 L177 192 L176 193 L176 192 L175 192 L172 193 L171 193 L169 194 L163 194 L163 193" style="fill:none; stroke:black;" />
  <path d="M220 155 L219 153 L218 152 L218 150 L220 149 L223 148 L228 147 L230 145 L223 145 L223 144 L222 143 L221 144 L219 145 L217 145 L215 144 L214 144 L209 138 L209 137 L208 135 L210 133 L212 133 L212 130 L215 127 L215 125 L217 122 L219 122 L221 120 L221 119 L227 119 L229 121 L229 125 L230 126 L233 128 L234 131 L234 138 L235 139 L237 139 L240 140 L238 147 L237 152 L237 153 L236 153 L232 155 L230 157 L223 157 L220 155" style="fill:none; stroke:black;" />
  <path d="M204 131 L204 130 L203 127 L204 126 L208 124 L211 123 L212 123 L214 125 L213 126 L212 128 L211 128 L207 132 L205 132 L204 131" style="fill:none; stroke:black;" />
  <path d="M200 120 L192 120 L191 118 L193 114 L195 112 L198 112 L200 111 L201 110 L203 109 L204 109 L206 108 L213 101 L222 101 L223 100 L226 103 L227 105 L226 108 L223 110 L222 111 L222 115 L220 117 L219 117 L217 118 L217 119 L215 121 L213 119 L213 115 L214 114 L215 114 L215 113 L213 114 L202 125 L200 123 L200 120" style="fill:none; stroke:black;" />
  <path d="M239 109 L238 108 L237 108 L235 104 L235 101 L234 101 L231 99 L230 94 L233 94 L235 96 L235 97 L239 97 L247 96 L248 96 L249 97 L248 99 L248 102 L247 106 L246 108 L244 110 L241 110 L239 109" style="fill:none; stroke:black;" />
  <path d="M247 94 L245 92 L244 92 L244 91 L240 91 L239 89 L243 86 L245 87 L246 86 L250 86 L251 87 L249 95 L248 95 L248 94 L247 94" style="fill:none; stroke:black;" />
  <path d="M250 257 L244 254 L241 252 L241 251 L239 250 L238 249 L237 249 L236 248 L236 245 L234 245 L233 246 L233 248 L230 249 L227 249 L225 250 L223 250 L222 252 L212 252 L201 251 L198 251 L198 243 L197 242 L197 238 L196 237 L194 236 L191 236 L185 232 L185 229 L184 227 L184 225 L183 222 L183 220 L204 226 L213 229 L220 231 L222 220 L226 208 L229 195 L231 185 L231 184 L232 186 L234 189 L235 194 L236 194 L235 199 L235 205 L236 206 L237 204 L238 204 L238 183 L239 181 L241 180 L244 180 L247 183 L246 181 L245 180 L245 179 L244 177 L246 175 L249 175 L252 174 L254 175 L256 178 L258 180 L257 182 L254 187 L251 190 L251 204 L252 208 L253 211 L253 214 L251 218 L251 221 L252 224 L255 228 L259 232 L265 236 L266 240 L265 243 L265 244 L259 244 L259 243 L256 243 L258 247 L261 252 L260 254 L254 257 L250 257" style="fill:none; stroke:black;" />
  <path d="M387 489 L386 489 L386 486 L390 486 L392 485 L394 487 L395 489 L395 491 L391 491 L387 489" style="fill:none; stroke:black;" />
  <path d="M278 392 L277 391 L270 391 L268 390 L263 390 L260 389 L253 389 L241 387 L240 387 L241 386 L241 379 L242 376 L242 368 L243 366 L243 360 L244 356 L244 347 L245 345 L245 343 L246 334 L246 325 L247 323 L247 322 L246 321 L243 319 L238 317 L228 312 L221 308 L218 306 L214 304 L213 303 L211 302 L210 301 L207 295 L205 292 L199 290 L193 289 L191 285 L189 283 L183 275 L178 267 L166 251 L165 248 L163 246 L162 244 L162 243 L168 225 L168 224 L169 224 L174 228 L176 231 L177 233 L181 237 L183 238 L186 238 L187 237 L192 242 L195 248 L195 251 L194 252 L188 252 L186 253 L186 255 L187 256 L187 257 L188 258 L189 258 L193 260 L201 262 L203 263 L206 262 L208 262 L210 261 L211 261 L212 260 L213 261 L213 262 L215 265 L217 267 L221 272 L222 275 L222 266 L227 263 L230 262 L233 260 L233 259 L231 260 L230 260 L228 261 L226 261 L224 262 L223 262 L219 258 L222 254 L227 253 L230 253 L231 252 L233 252 L234 251 L235 252 L237 252 L238 254 L238 257 L239 258 L239 259 L240 262 L244 266 L249 266 L250 268 L251 269 L253 273 L264 273 L267 274 L269 274 L271 275 L273 275 L273 271 L274 270 L274 265 L277 265 L286 268 L287 269 L289 270 L287 277 L286 280 L286 281 L287 281 L288 282 L288 283 L289 284 L289 285 L290 284 L290 282 L289 281 L289 271 L291 272 L293 272 L296 270 L298 268 L299 266 L299 260 L297 258 L297 254 L299 252 L296 250 L293 249 L291 248 L290 247 L288 243 L287 242 L287 238 L288 236 L288 234 L286 228 L287 225 L287 223 L288 222 L292 220 L291 218 L291 217 L292 215 L296 210 L298 211 L299 211 L300 212 L300 213 L301 215 L302 216 L306 219 L306 225 L307 229 L309 234 L312 239 L313 242 L310 241 L309 240 L309 246 L308 248 L309 249 L312 249 L314 248 L316 249 L320 250 L321 251 L321 252 L320 252 L319 253 L314 253 L314 254 L316 258 L318 261 L319 262 L319 268 L320 266 L320 263 L321 257 L321 256 L325 254 L328 258 L332 262 L332 264 L333 267 L333 269 L331 271 L331 274 L332 277 L332 278 L333 279 L334 281 L335 282 L336 284 L337 284 L339 282 L339 280 L340 278 L340 275 L341 273 L341 271 L343 267 L343 265 L344 262 L345 261 L347 258 L347 257 L346 255 L344 254 L343 248 L343 246 L344 244 L345 243 L350 243 L351 244 L357 247 L359 247 L361 249 L362 251 L364 251 L366 252 L368 254 L368 255 L366 257 L368 259 L368 261 L369 263 L367 264 L366 264 L365 265 L365 266 L364 267 L362 267 L362 268 L364 269 L365 270 L365 273 L366 274 L366 275 L367 275 L371 278 L371 283 L367 289 L363 297 L360 297 L358 296 L357 296 L356 295 L358 299 L357 300 L355 299 L352 299 L351 300 L350 299 L349 299 L346 296 L344 297 L342 297 L342 298 L341 298 L342 300 L344 301 L344 305 L343 307 L339 311 L338 313 L338 314 L337 315 L339 317 L339 322 L338 323 L337 325 L336 325 L336 326 L334 329 L333 331 L331 336 L321 336 L320 337 L320 341 L312 341 L314 343 L315 343 L316 344 L316 350 L315 352 L313 353 L306 353 L307 355 L308 356 L306 358 L303 360 L300 364 L299 367 L298 368 L297 370 L295 371 L294 374 L294 375 L292 381 L290 386 L289 388 L289 393 L285 393 L285 392 L278 392" style="fill:none; stroke:black;" />
  <path d="M385 364 L383 362 L383 357 L387 353 L388 353 L390 354 L391 356 L390 362 L387 365 L385 364" style="fill:none; stroke:black;" />
  <path d="M360 358 L358 356 L360 351 L363 349 L364 348 L371 348 L372 349 L373 351 L371 353 L369 357 L366 359 L360 359 L360 358" style="fill:none; stroke:black;" />
  <path d="M348 347 L348 343 L347 342 L347 341 L344 341 L338 340 L337 339 L340 336 L342 333 L342 316 L344 308 L345 306 L347 305 L349 305 L349 307 L350 307 L351 309 L351 310 L352 312 L355 312 L357 313 L360 315 L365 320 L369 322 L370 323 L370 324 L371 325 L371 327 L373 329 L373 330 L378 330 L380 331 L381 332 L381 338 L377 340 L373 338 L368 338 L368 337 L367 337 L367 334 L362 332 L361 332 L361 336 L360 338 L358 340 L357 340 L356 342 L356 343 L352 347 L348 347" style="fill:none; stroke:black;" />
  <path d="M283 266 L279 264 L275 260 L274 260 L272 258 L272 256 L280 245 L282 245 L287 250 L288 253 L290 257 L291 261 L291 264 L289 265 L287 267 L286 267 L283 266" style="fill:none; stroke:black;" />
  <path d="M283 266 L279 264 L275 260 L274 260 L272 258 L272 256 L280 245 L282 245 L287 250 L288 253 L290 257 L291 261 L291 264 L289 265 L287 267 L286 267 L283 266" style="fill:none; stroke:black;" />
  <path d="M456 343 L454 342 L453 342 L453 341 L451 340 L449 338 L442 338 L437 335 L434 334 L433 334 L433 332 L432 330 L433 329 L434 329 L434 328 L433 328 L432 327 L430 326 L429 325 L427 324 L425 324 L425 323 L424 322 L423 320 L420 318 L415 318 L413 320 L408 320 L407 322 L404 324 L393 324 L392 323 L391 317 L391 314 L394 311 L394 307 L395 307 L398 306 L408 306 L411 303 L414 302 L416 302 L416 301 L415 300 L415 298 L413 296 L411 295 L411 292 L412 290 L412 289 L414 286 L415 283 L418 277 L417 274 L416 270 L413 266 L411 263 L410 263 L409 262 L409 261 L405 257 L403 256 L402 256 L402 252 L400 253 L398 253 L398 254 L396 255 L395 255 L393 256 L392 254 L392 253 L394 251 L396 250 L395 249 L393 248 L389 250 L388 249 L388 246 L389 246 L390 245 L384 239 L381 237 L380 237 L380 241 L363 241 L363 243 L357 243 L353 242 L343 242 L340 243 L339 242 L338 239 L337 238 L330 238 L328 237 L325 234 L322 230 L322 227 L326 227 L328 226 L330 226 L329 225 L326 224 L322 224 L321 223 L321 221 L320 216 L320 214 L321 204 L321 202 L326 187 L328 182 L331 181 L336 178 L343 179 L344 182 L344 184 L342 185 L341 186 L341 188 L340 189 L340 192 L339 192 L338 194 L337 199 L338 200 L338 209 L340 209 L341 208 L341 207 L342 206 L342 205 L343 204 L341 202 L340 200 L340 196 L341 195 L341 194 L342 194 L343 193 L343 191 L344 191 L344 189 L348 183 L352 181 L357 180 L358 180 L360 182 L363 188 L365 191 L367 195 L366 196 L366 198 L368 200 L372 200 L374 199 L374 198 L373 196 L376 194 L380 193 L383 192 L385 193 L385 194 L387 195 L389 195 L391 196 L392 198 L392 200 L393 201 L395 201 L395 202 L396 203 L396 205 L397 205 L398 207 L400 208 L402 211 L403 211 L403 208 L404 208 L405 206 L409 207 L411 208 L412 208 L412 211 L415 214 L416 214 L417 215 L417 216 L418 218 L419 218 L421 217 L422 216 L423 216 L426 218 L428 220 L428 221 L427 225 L429 225 L429 224 L431 222 L432 222 L437 227 L438 229 L438 233 L440 234 L443 237 L443 238 L441 240 L439 241 L438 240 L436 240 L437 242 L437 247 L436 248 L438 250 L440 251 L441 251 L443 252 L444 252 L445 253 L447 254 L450 254 L451 255 L458 255 L463 260 L466 260 L468 261 L469 261 L469 264 L470 265 L471 264 L473 263 L477 262 L479 263 L480 264 L480 265 L481 267 L481 272 L479 273 L478 274 L478 275 L479 275 L480 276 L480 277 L479 278 L479 283 L478 286 L475 286 L475 287 L476 289 L477 292 L478 292 L479 293 L478 294 L474 296 L472 295 L471 294 L470 294 L468 293 L466 293 L465 292 L464 290 L462 287 L459 284 L457 284 L457 283 L456 283 L454 281 L451 280 L451 281 L450 282 L449 282 L448 283 L450 284 L451 286 L451 288 L450 289 L449 289 L449 291 L453 292 L454 293 L454 294 L456 296 L458 299 L459 299 L464 300 L466 301 L466 302 L467 303 L467 304 L468 304 L469 306 L475 312 L478 316 L478 331 L477 331 L468 328 L463 326 L461 325 L458 323 L457 323 L456 321 L455 321 L452 322 L451 322 L451 323 L453 323 L455 325 L456 327 L457 327 L460 329 L462 329 L466 332 L469 334 L474 337 L474 343 L471 344 L468 344 L468 343 L456 343" style="fill:none; stroke:black;" />
  <path d="M396 342 L393 339 L395 337 L396 337 L398 338 L399 339 L399 341 L398 342 L398 343 L396 342" style="fill:none; stroke:black;" />
  <path d="M401 336 L400 335 L400 333 L402 333 L403 332 L405 334 L405 335 L404 336 L401 336" style="fill:none; stroke:black;" />
  <path d="M390 275 L391 264 L395 262 L397 260 L399 261 L401 263 L402 265 L402 277 L396 280 L395 280 L390 275" style="fill:none; stroke:black;" />
  <path d="M405 268 L404 266 L405 265 L409 265 L411 267 L411 268 L409 269 L407 269 L405 268" style="fill:none; stroke:black;" />
  <path d="M377 255 L376 255 L378 253 L378 252 L379 251 L379 249 L380 246 L381 244 L382 244 L383 246 L382 247 L381 249 L382 252 L378 257 L377 255" style="fill:none; stroke:black;" />
  <path d="M274 218 L273 216 L272 210 L271 209 L267 206 L266 205 L264 201 L262 198 L263 196 L263 195 L264 193 L265 193 L266 192 L269 194 L271 196 L272 195 L273 195 L273 192 L274 191 L274 190 L271 187 L270 185 L271 182 L271 180 L273 177 L274 177 L276 178 L277 179 L279 180 L280 180 L280 179 L282 178 L287 177 L288 178 L289 178 L289 184 L287 184 L289 186 L289 187 L284 192 L284 193 L285 193 L286 194 L287 194 L287 196 L288 197 L288 198 L290 201 L290 210 L289 211 L288 214 L285 216 L283 216 L284 217 L281 220 L279 220 L277 221 L274 218" style="fill:none; stroke:black;" />
  <path d="M294 207 L294 202 L293 199 L294 187 L295 183 L296 182 L296 180 L297 179 L297 176 L299 175 L304 174 L307 174 L309 176 L313 176 L316 177 L319 180 L318 182 L318 183 L317 184 L317 185 L316 186 L316 187 L314 191 L313 192 L312 195 L312 196 L311 198 L311 199 L310 200 L303 200 L303 201 L302 205 L302 209 L300 210 L297 210 L294 207" style="fill:none; stroke:black;" />
  <path d="M368 192 L365 188 L362 181 L362 180 L363 179 L373 179 L375 180 L378 182 L381 185 L384 191 L382 192 L379 191 L376 191 L375 192 L374 192 L371 194 L369 194 L368 192" style="fill:none; stroke:black;" />
  <path d="M318 168 L317 167 L315 166 L312 166 L311 165 L311 158 L310 158 L310 156 L309 151 L310 150 L310 146 L311 144 L308 141 L308 138 L307 138 L304 137 L299 137 L298 136 L294 130 L293 129 L293 126 L294 124 L295 123 L299 124 L303 124 L306 126 L306 129 L307 130 L315 130 L317 131 L317 134 L318 135 L320 136 L321 138 L319 142 L323 146 L323 148 L325 148 L326 149 L329 149 L331 150 L335 150 L338 149 L340 148 L342 148 L346 144 L355 144 L356 145 L360 147 L364 150 L366 154 L364 156 L365 157 L365 159 L364 160 L364 162 L363 163 L363 165 L357 168 L351 168 L350 166 L349 165 L348 166 L347 166 L346 167 L344 168 L336 168 L328 169 L326 168 L325 166 L325 165 L321 169 L320 169 L319 168 L318 168" style="fill:none; stroke:black;" />
  <path d="M300 166 L294 162 L293 160 L292 159 L292 157 L294 153 L296 150 L296 149 L298 149 L300 148 L303 149 L305 150 L306 152 L307 158 L307 164 L306 165 L304 166 L300 166" style="fill:none; stroke:black;" />
  <path d="M282 156 L279 155 L277 153 L277 151 L278 150 L278 149 L280 148 L269 148 L269 141 L266 139 L265 138 L263 137 L264 136 L264 135 L265 134 L267 134 L270 135 L271 135 L271 136 L272 138 L274 139 L275 141 L276 142 L279 142 L279 138 L275 134 L274 134 L274 133 L275 132 L277 131 L279 129 L285 129 L286 130 L288 130 L289 131 L290 131 L290 141 L289 147 L289 151 L288 151 L288 153 L289 154 L289 156 L288 158 L286 157 L283 157 L282 156" style="fill:none; stroke:black;" />
  <path d="M243 152 L242 152 L241 153 L240 153 L239 154 L239 153 L238 153 L241 141 L242 141 L242 135 L245 123 L246 122 L247 119 L251 121 L250 124 L250 132 L249 132 L249 137 L253 137 L254 136 L256 136 L259 139 L259 146 L258 148 L256 150 L256 151 L254 154 L249 155 L243 152" style="fill:none; stroke:black;" />
  <path d="M259 150 L260 150 L260 149 L262 149 L263 148 L264 151 L265 152 L265 154 L259 154 L259 150" style="fill:none; stroke:black;" />
  <path d="M356 137 L356 134 L352 132 L351 134 L350 135 L349 135 L348 134 L346 134 L343 131 L342 132 L342 136 L340 137 L338 136 L325 136 L324 135 L323 135 L321 133 L321 127 L322 126 L323 124 L326 121 L330 121 L330 120 L325 115 L325 112 L327 108 L333 108 L335 110 L336 112 L336 114 L337 115 L337 116 L338 117 L339 117 L340 116 L341 116 L337 112 L335 108 L336 106 L338 104 L329 104 L329 98 L330 97 L330 96 L331 95 L330 95 L330 94 L332 92 L338 88 L346 92 L346 91 L346 89 L342 89 L339 85 L337 81 L337 80 L336 77 L333 74 L333 73 L332 73 L331 72 L330 70 L331 66 L331 62 L332 61 L335 62 L338 62 L343 67 L344 70 L346 72 L346 71 L345 68 L344 66 L341 63 L341 61 L344 60 L345 59 L347 58 L348 58 L350 56 L352 56 L352 55 L353 53 L356 50 L354 48 L353 45 L353 46 L352 47 L349 54 L346 56 L339 56 L338 57 L334 58 L332 57 L332 51 L333 50 L333 49 L332 49 L331 51 L331 52 L328 55 L327 55 L323 54 L321 51 L322 49 L323 49 L323 48 L320 48 L319 47 L319 43 L323 39 L322 39 L321 38 L320 38 L320 37 L314 37 L315 32 L320 30 L323 27 L325 26 L325 25 L329 25 L329 22 L330 21 L331 21 L332 20 L332 18 L333 17 L335 17 L335 18 L337 18 L338 19 L340 20 L340 17 L341 15 L342 14 L343 12 L344 11 L344 10 L345 8 L346 7 L347 5 L349 5 L350 6 L350 5 L351 4 L351 3 L353 2 L355 2 L359 3 L360 2 L362 1 L365 0 L369 -1 L371 1 L372 0 L374 0 L376 -1 L378 -1 L379 0 L382 0 L386 -1 L387 0 L387 1 L388 3 L389 4 L392 4 L394 5 L394 6 L395 8 L396 11 L396 14 L395 18 L394 21 L391 24 L389 24 L386 27 L385 30 L384 32 L384 34 L386 32 L386 30 L387 30 L390 27 L390 26 L392 26 L393 27 L393 34 L392 35 L388 41 L389 42 L388 45 L386 48 L384 54 L384 55 L383 56 L382 62 L382 67 L379 70 L377 69 L375 69 L375 72 L374 73 L374 74 L373 75 L368 77 L368 76 L366 78 L368 80 L368 82 L367 83 L367 84 L368 85 L370 85 L374 89 L374 92 L373 93 L371 94 L371 95 L373 96 L374 97 L374 99 L372 99 L372 103 L369 106 L365 106 L365 110 L366 114 L361 119 L364 122 L365 122 L368 125 L367 128 L366 130 L364 135 L357 140 L356 137" style="fill:none; stroke:black;" />
  <path d="M261 116 L261 114 L262 111 L263 109 L264 109 L265 111 L267 114 L267 117 L265 118 L264 119 L261 116" style="fill:none; stroke:black;" />
  <path d="M299 117 L296 115 L295 113 L298 111 L300 109 L303 109 L306 110 L308 112 L308 114 L306 117 L304 118 L302 118 L299 117" style="fill:none; stroke:black;" />
  <path d="M295 108 L293 108 L293 103 L290 100 L290 93 L292 91 L294 91 L294 92 L298 94 L299 95 L301 96 L302 96 L302 105 L300 107 L297 109 L295 108" style="fill:none; stroke:black;" />
  <path d="M277 100 L271 100 L268 97 L267 95 L268 93 L269 93 L269 92 L271 92 L271 91 L272 90 L272 88 L271 87 L271 86 L270 85 L266 82 L268 78 L274 78 L277 80 L277 82 L278 83 L280 83 L282 86 L283 88 L285 90 L285 91 L287 93 L287 96 L286 99 L286 100 L287 102 L289 104 L289 106 L287 108 L285 109 L285 108 L277 100" style="fill:none; stroke:black;" />
  <path d="M312 101 L311 99 L310 99 L310 97 L307 94 L305 90 L305 87 L307 84 L310 84 L312 83 L312 81 L310 80 L307 80 L306 81 L302 81 L301 79 L301 77 L302 76 L302 75 L300 75 L300 74 L299 73 L298 71 L299 68 L300 67 L300 66 L304 66 L302 64 L302 63 L300 62 L300 61 L301 60 L301 58 L302 57 L304 57 L307 56 L305 53 L303 51 L304 49 L304 48 L305 47 L306 47 L308 45 L308 42 L312 42 L315 43 L315 45 L316 47 L318 50 L318 52 L322 58 L324 60 L324 63 L327 66 L329 69 L329 74 L334 78 L336 79 L336 84 L333 88 L332 90 L329 93 L328 93 L328 95 L327 97 L326 98 L324 101 L321 101 L320 100 L320 104 L315 104 L312 101" style="fill:none; stroke:black;" />
  <path d="M251 93 L252 92 L252 89 L253 89 L252 93 L252 94 L251 95 L251 93" style="fill:none; stroke:black;" />
  <path d="M289 71 L287 70 L286 68 L286 67 L287 65 L287 64 L290 64 L290 65 L291 66 L293 69 L293 70 L291 72 L290 72 L289 71" style="fill:none; stroke:black;" />
  <path d="M388 638 L389 636 L392 636 L394 634 L395 631 L394 630 L394 628 L395 627 L395 624 L396 624 L398 622 L399 619 L399 607 L401 604 L402 601 L402 599 L401 598 L400 596 L399 595 L398 593 L399 593 L405 599 L408 601 L410 602 L413 602 L414 598 L412 595 L411 593 L406 587 L404 586 L404 585 L402 585 L400 584 L396 584 L394 583 L392 583 L389 582 L377 582 L376 581 L375 581 L373 579 L370 578 L370 575 L367 572 L368 571 L369 571 L369 570 L368 568 L366 566 L366 564 L365 562 L363 562 L361 561 L355 559 L354 558 L354 557 L353 556 L353 551 L352 550 L344 550 L342 549 L339 547 L337 549 L335 550 L335 551 L336 552 L333 554 L331 555 L325 561 L318 559 L311 559 L308 558 L304 557 L304 556 L302 556 L298 552 L289 552 L287 550 L283 550 L283 549 L282 546 L282 543 L280 542 L279 541 L279 521 L280 516 L280 505 L281 494 L292 483 L294 480 L298 477 L299 474 L303 470 L306 466 L310 462 L313 458 L317 454 L318 452 L325 445 L328 441 L330 439 L331 440 L333 441 L337 444 L337 446 L338 447 L340 448 L341 449 L343 449 L345 450 L346 450 L349 453 L353 453 L355 454 L356 456 L359 458 L368 459 L378 459 L382 461 L381 466 L381 470 L380 471 L381 472 L381 473 L382 473 L382 476 L383 481 L383 482 L384 482 L384 488 L385 490 L387 493 L393 501 L395 501 L398 505 L400 511 L403 510 L406 510 L406 513 L407 517 L407 523 L408 525 L408 532 L409 534 L409 540 L410 544 L410 548 L411 554 L411 558 L412 561 L412 563 L413 566 L413 568 L415 570 L415 571 L421 575 L426 577 L430 578 L434 578 L435 579 L437 580 L438 581 L439 581 L441 583 L442 585 L447 585 L450 584 L451 584 L454 583 L457 581 L460 580 L460 583 L461 584 L461 585 L460 585 L459 587 L456 589 L453 592 L450 597 L446 601 L446 602 L445 602 L443 604 L444 605 L440 607 L430 607 L422 610 L420 614 L418 617 L420 618 L421 619 L423 619 L423 618 L425 620 L425 623 L420 623 L414 625 L412 627 L413 628 L415 629 L410 629 L405 628 L404 628 L398 635 L394 639 L388 639 L388 638" style="fill:none; stroke:black;" />
  <path d="M557 546 L553 545 L552 545 L549 544 L548 543 L545 543 L546 540 L547 538 L547 537 L548 537 L549 538 L551 539 L553 541 L553 542 L555 540 L560 540 L561 539 L566 538 L566 540 L565 541 L565 546 L564 547 L563 546 L557 546" style="fill:none; stroke:black;" />
  <path d="M463 584 L462 583 L462 581 L461 579 L457 579 L455 580 L452 582 L451 583 L443 583 L442 581 L440 579 L438 579 L434 577 L433 576 L427 576 L422 574 L419 572 L416 569 L414 565 L413 562 L413 554 L412 551 L412 546 L411 543 L411 536 L407 508 L407 506 L408 506 L410 505 L410 504 L409 502 L410 502 L411 500 L411 499 L412 497 L412 496 L411 493 L410 491 L409 488 L408 486 L408 484 L407 483 L407 482 L406 481 L406 480 L405 479 L405 477 L406 475 L404 472 L402 471 L402 470 L401 470 L401 467 L400 466 L400 465 L399 465 L399 464 L402 461 L405 460 L410 455 L411 453 L413 452 L417 444 L418 440 L418 430 L417 427 L416 425 L415 422 L415 419 L410 414 L407 412 L403 410 L400 407 L400 403 L401 402 L401 400 L402 399 L402 398 L403 397 L404 397 L404 391 L406 389 L405 387 L405 386 L404 384 L404 382 L403 379 L400 376 L400 364 L399 363 L397 359 L396 355 L397 353 L398 350 L401 350 L404 349 L408 349 L410 350 L413 351 L417 352 L418 351 L419 351 L424 346 L425 346 L435 352 L438 354 L440 355 L441 356 L441 360 L442 361 L443 361 L447 362 L450 362 L454 363 L455 363 L457 364 L457 371 L459 378 L460 379 L460 383 L461 384 L462 384 L463 386 L463 387 L464 390 L467 389 L469 389 L472 391 L473 393 L475 394 L477 394 L477 396 L483 390 L483 387 L484 386 L485 386 L486 385 L486 383 L487 381 L487 375 L486 374 L486 369 L487 366 L488 365 L489 365 L489 367 L490 370 L492 374 L493 374 L495 379 L495 380 L494 381 L495 382 L498 381 L500 381 L500 389 L499 391 L499 392 L500 392 L500 393 L503 395 L505 395 L506 396 L507 396 L507 408 L508 410 L508 411 L509 413 L509 416 L510 416 L512 418 L515 423 L515 426 L516 426 L516 427 L517 428 L517 429 L518 431 L517 434 L516 436 L512 436 L510 435 L508 435 L507 437 L505 439 L504 439 L503 438 L503 437 L501 436 L499 436 L496 435 L496 436 L495 438 L495 439 L494 440 L493 440 L492 441 L492 445 L491 446 L489 447 L489 449 L490 451 L490 453 L491 455 L494 458 L496 459 L499 460 L499 462 L498 465 L497 466 L498 466 L499 468 L500 469 L502 469 L505 468 L506 468 L506 470 L507 472 L507 473 L509 475 L509 476 L512 475 L515 475 L517 477 L526 477 L526 474 L527 471 L527 468 L528 468 L529 469 L531 470 L533 470 L535 469 L543 467 L552 463 L565 458 L572 455 L575 454 L577 454 L579 453 L580 452 L580 453 L584 457 L584 458 L582 459 L581 460 L576 464 L573 467 L573 470 L571 476 L569 478 L568 481 L568 482 L567 483 L559 488 L554 489 L552 490 L548 491 L545 492 L525 498 L516 501 L514 504 L514 505 L513 506 L513 509 L512 512 L512 514 L511 517 L507 517 L502 523 L500 528 L500 529 L498 533 L497 534 L496 536 L496 537 L495 542 L488 554 L484 558 L478 562 L471 571 L473 569 L476 567 L478 564 L483 559 L486 557 L490 553 L494 547 L498 539 L498 536 L499 534 L504 528 L506 527 L507 526 L508 524 L510 523 L511 521 L514 519 L515 518 L517 517 L520 515 L522 514 L525 512 L529 510 L535 510 L538 511 L538 512 L539 513 L541 517 L541 520 L538 523 L535 527 L534 527 L531 528 L525 528 L519 531 L517 533 L515 534 L506 534 L507 540 L507 544 L501 544 L499 546 L497 554 L496 557 L496 562 L495 564 L495 572 L493 575 L488 580 L488 581 L487 582 L485 582 L477 584 L472 585 L468 586 L464 586 L463 585 L463 584" style="fill:none; stroke:black;" />
  <path d="M544 505 L542 505 L542 504 L541 504 L539 503 L537 503 L534 502 L533 501 L536 498 L540 498 L547 497 L549 498 L554 499 L558 501 L558 505 L553 505 L547 506 L545 506 L544 505" style="fill:none; stroke:black;" />
  <path d="M224 540 L224 539 L215 539 L215 538 L206 538 L206 537 L199 537 L192 535 L186 534 L179 532 L173 531 L170 530 L169 530 L166 529 L164 529 L163 528 L159 528 L157 527 L154 526 L153 526 L153 525 L154 525 L158 508 L158 506 L159 503 L161 495 L162 489 L163 484 L166 472 L167 466 L169 460 L170 455 L170 454 L171 451 L172 447 L173 444 L174 436 L175 431 L177 426 L178 418 L180 410 L182 403 L185 391 L187 391 L189 392 L199 392 L202 391 L203 391 L206 393 L208 394 L210 394 L210 393 L199 387 L196 387 L195 386 L193 386 L192 385 L191 385 L190 384 L187 384 L186 385 L187 381 L187 379 L189 379 L192 380 L196 381 L200 381 L220 386 L222 386 L225 387 L229 387 L232 388 L236 389 L239 389 L239 392 L237 402 L237 407 L236 413 L236 414 L235 416 L235 418 L233 418 L230 421 L230 423 L229 424 L229 426 L231 430 L230 432 L229 433 L228 435 L227 435 L227 436 L228 436 L230 435 L230 434 L233 434 L233 435 L232 446 L232 447 L231 451 L231 461 L230 465 L230 475 L229 479 L229 490 L228 493 L228 504 L227 507 L227 518 L226 521 L226 535 L225 536 L225 540 L224 540" style="fill:none; stroke:black;" />
  <path d="M95 345 L94 345 L90 343 L87 341 L76 335 L58 326 L53 323 L11 295 L9 293 L9 291 L10 289 L12 288 L15 285 L13 284 L6 284 L6 283 L5 282 L4 282 L2 281 L2 279 L3 277 L7 271 L13 261 L26 241 L54 199 L67 178 L74 169 L75 169 L78 171 L79 172 L80 175 L80 177 L81 179 L81 180 L83 184 L83 186 L84 187 L85 189 L87 190 L86 191 L85 193 L80 201 L79 204 L79 205 L78 207 L77 208 L77 210 L73 218 L78 222 L82 225 L83 226 L83 227 L82 230 L81 231 L80 234 L79 236 L79 241 L81 242 L83 244 L82 249 L81 250 L79 250 L78 252 L78 254 L76 256 L75 258 L76 260 L78 262 L78 266 L79 268 L79 269 L80 270 L80 276 L82 278 L82 279 L81 282 L79 287 L79 291 L78 295 L78 300 L77 301 L77 303 L80 306 L80 307 L81 311 L83 315 L83 317 L84 319 L85 320 L84 320 L83 321 L83 326 L82 328 L83 329 L87 331 L88 331 L91 333 L92 333 L94 335 L96 335 L96 346 L95 345" style="fill:none; stroke:black;" />
</svg>